<?xml version="1.0" encoding="UTF-8"?>
<svg xmlns="http://www.w3.org/2000/svg" viewBox="0 0 700 580" width="700" height="580">
  <defs>
    <style>
      .heading { font-family: Helvetica, Arial, sans-serif; }
      .subheading { font-family: 'Times New Roman', Times, serif; font-style: italic; }
      .body { font-family: Helvetica, Arial, sans-serif; }
      .mono { font-family: 'IBM Plex Mono', 'SF Mono', monospace; }
    </style>
  </defs>
  <!-- no background rect — page bg shows through -->
  <text x="350.0" y="36" class="heading" font-size="22" fill="#000000" text-anchor="middle">Design document workflow</text>
  <text x="350.0" y="56" class="subheading" font-size="14" fill="#666666" text-anchor="middle">from idea to validated, codebase-grounded spec</text>
  <ellipse cx="100" cy="155" rx="65" ry="45" fill="#00A6DB" opacity="0.12"/>
  <ellipse cx="100" cy="155" rx="55" ry="37" fill="#FFFFFF" opacity="0.85"/>
  <text x="100" y="145" class="heading" font-size="15" fill="#00A6DB" text-anchor="middle">Explore</text>
  <text x="100" y="165" class="body" font-size="11" fill="#666666" text-anchor="middle">search code +</text>
  <text x="100" y="181" class="body" font-size="11" fill="#666666" text-anchor="middle">knowledge pages</text>
  <ellipse cx="260" cy="155" rx="65" ry="45" fill="#007C35" opacity="0.12"/>
  <ellipse cx="260" cy="155" rx="55" ry="37" fill="#FFFFFF" opacity="0.85"/>
  <text x="260" y="145" class="heading" font-size="15" fill="#007C35" text-anchor="middle">Interview</text>
  <text x="260" y="165" class="body" font-size="11" fill="#666666" text-anchor="middle">3-5 grounded</text>
  <text x="260" y="181" class="body" font-size="11" fill="#666666" text-anchor="middle">questions</text>
  <ellipse cx="420" cy="155" rx="65" ry="45" fill="#FFCE02" opacity="0.12"/>
  <ellipse cx="420" cy="155" rx="55" ry="37" fill="#FFFFFF" opacity="0.85"/>
  <text x="420" y="145" class="heading" font-size="15" fill="#FFCE02" text-anchor="middle">Draft</text>
  <text x="420" y="165" class="mono" font-size="11" fill="#666666" text-anchor="middle">.design/&lt;slug&gt;.md</text>
  <ellipse cx="580" cy="155" rx="65" ry="45" fill="#F95838" opacity="0.12"/>
  <ellipse cx="580" cy="155" rx="55" ry="37" fill="#FFFFFF" opacity="0.85"/>
  <text x="580" y="145" class="heading" font-size="15" fill="#F95838" text-anchor="middle">Validate</text>
  <text x="580" y="165" class="body" font-size="11" fill="#666666" text-anchor="middle">reqs, ACs,</text>
  <text x="580" y="181" class="body" font-size="11" fill="#666666" text-anchor="middle">real file refs</text>
  <line x1="165.0" y1="155.0" x2="195.0" y2="155.0" stroke="#1a1a1a" stroke-width="2" stroke-linecap="round"/>
  <polygon points="195.0,155.0 185.6,158.4 185.6,151.6" fill="#1a1a1a"/>
  <line x1="325.0" y1="155.0" x2="355.0" y2="155.0" stroke="#1a1a1a" stroke-width="2" stroke-linecap="round"/>
  <polygon points="355.0,155.0 345.6,158.4 345.6,151.6" fill="#1a1a1a"/>
  <line x1="485.0" y1="155.0" x2="515.0" y2="155.0" stroke="#1a1a1a" stroke-width="2" stroke-linecap="round"/>
  <polygon points="515.0,155.0 505.6,158.4 505.6,151.6" fill="#1a1a1a"/>
  <path d="M 580 203 Q 580 225 420 225 Q 260 225 260 203" fill="none" stroke="#F95838" stroke-width="2" stroke-linecap="round" opacity="0.7"/>
  <polygon points="260,203 263.1,210.4 256.9,210.4" fill="#F95838" opacity="0.7"/>
  <text x="420" y="219" class="mono" font-size="12" fill="#F95838" text-anchor="middle">/design --continue &lt;slug&gt;</text>
  <rect x="180" y="275" width="340" height="65" rx="16" fill="rgba(0,0,0,0.06)"/>
  <text x="350.0" y="295" class="mono" font-size="11" fill="#007C35" text-anchor="middle">[PASS] requirements: 3</text>
  <text x="350.0" y="313" class="mono" font-size="11" fill="#007C35" text-anchor="middle">[PASS] acceptance criteria: 4</text>
  <text x="350.0" y="331" class="mono" font-size="11" fill="#FFCE02" text-anchor="middle">[OPEN] 1 unresolved question</text>
  <text x="350.0" y="360" class="heading" font-size="16" fill="#000000" text-anchor="middle">From design to implementation</text>
  <line x1="350.0" y1="340.0" x2="350.0" y2="375.0" stroke="#666666" stroke-width="1.5" stroke-linecap="round"/>
  <polygon points="350.0,375.0 346.6,365.6 353.4,365.6" fill="#666666"/>
  <rect x="30" y="380" width="160" height="115" rx="18" fill="#007C35" opacity="0.08"/>
  <text x="110.0" y="400" class="subheading" font-size="15" fill="#007C35" text-anchor="middle" font-weight="bold">Knowledge</text>
  <circle cx="48" cy="422" r="4" fill="#007C35" opacity="0.5"/>
  <text x="62" y="425" class="body" font-size="13" fill="#1a1a1a" text-anchor="start">stored via git</text>
  <circle cx="48" cy="446" r="4" fill="#007C35" opacity="0.5"/>
  <text x="62" y="449" class="body" font-size="13" fill="#1a1a1a" text-anchor="start">tagged: design-doc</text>
  <circle cx="48" cy="470" r="4" fill="#007C35" opacity="0.5"/>
  <text x="62" y="473" class="body" font-size="13" fill="#1a1a1a" text-anchor="start">searchable</text>
  <rect x="200" y="380" width="160" height="115" rx="18" fill="#00A6DB" opacity="0.08"/>
  <text x="280.0" y="400" class="subheading" font-size="15" fill="#00A6DB" text-anchor="middle" font-weight="bold">Gap analysis</text>
  <circle cx="218" cy="422" r="4" fill="#00A6DB" opacity="0.5"/>
  <text x="232" y="425" class="body" font-size="13" fill="#1a1a1a" text-anchor="start">kickoff plan</text>
  <circle cx="218" cy="446" r="4" fill="#00A6DB" opacity="0.5"/>
  <text x="232" y="449" class="body" font-size="13" fill="#1a1a1a" text-anchor="start">files to modify</text>
  <circle cx="218" cy="470" r="4" fill="#00A6DB" opacity="0.5"/>
  <text x="232" y="473" class="body" font-size="13" fill="#1a1a1a" text-anchor="start">tests needed</text>
  <rect x="370" y="380" width="160" height="115" rx="18" fill="#FFCE02" opacity="0.08"/>
  <text x="450.0" y="400" class="subheading" font-size="15" fill="#FFCE02" text-anchor="middle" font-weight="bold">Single agent</text>
  <circle cx="388" cy="422" r="4" fill="#FFCE02" opacity="0.5"/>
  <text x="402" y="425" class="mono" font-size="11" fill="#1a1a1a" text-anchor="start">kickoff run --doc</text>
  <circle cx="388" cy="446" r="4" fill="#FFCE02" opacity="0.5"/>
  <text x="402" y="449" class="body" font-size="13" fill="#1a1a1a" text-anchor="start">validates ACs</text>
  <circle cx="388" cy="470" r="4" fill="#FFCE02" opacity="0.5"/>
  <text x="402" y="473" class="body" font-size="13" fill="#1a1a1a" text-anchor="start">reports result</text>
  <rect x="540" y="380" width="145" height="115" rx="18" fill="#F95838" opacity="0.08"/>
  <text x="612.5" y="400" class="subheading" font-size="15" fill="#F95838" text-anchor="middle" font-weight="bold">Swarm build</text>
  <circle cx="558" cy="422" r="4" fill="#F95838" opacity="0.5"/>
  <text x="572" y="425" class="mono" font-size="11" fill="#1a1a1a" text-anchor="start">swarm init --doc</text>
  <circle cx="558" cy="446" r="4" fill="#F95838" opacity="0.5"/>
  <text x="572" y="449" class="body" font-size="13" fill="#1a1a1a" text-anchor="start">phased execution</text>
  <circle cx="558" cy="470" r="4" fill="#F95838" opacity="0.5"/>
  <text x="572" y="473" class="body" font-size="13" fill="#1a1a1a" text-anchor="start">budget-aware</text>
  <g style="mix-blend-mode: multiply">
    <circle cx="10.7" cy="89.0" r="8" fill="#FFCE02" opacity="0.5"/>
    <circle cx="18.5" cy="83.5" r="8" fill="#F95838" opacity="0.5"/>
    <circle cx="42.1" cy="136.9" r="8" fill="#007C35" opacity="0.5"/>
    <circle cx="18.8" cy="139.3" r="8" fill="#F95838" opacity="0.5"/>
    <circle cx="18.2" cy="122.9" r="8" fill="#FFCE02" opacity="0.5"/>
  </g>
  <g style="mix-blend-mode: multiply">
    <circle cx="661.6" cy="96.4" r="8" fill="#FFB6C6" opacity="0.5"/>
    <circle cx="635.6" cy="81.6" r="8" fill="#FFCE02" opacity="0.5"/>
    <circle cx="650.5" cy="96.5" r="8" fill="#FFCE02" opacity="0.5"/>
    <circle cx="651.9" cy="156.4" r="8" fill="#007C35" opacity="0.5"/>
    <circle cx="673.4" cy="113.3" r="8" fill="#FFB6C6" opacity="0.5"/>
  </g>
</svg>
