<?xml version="1.0" encoding="UTF-8"?><svg id="Layer_2" xmlns="http://www.w3.org/2000/svg" viewBox="0 0 1708.48 360"><g id="Layer_1-2"><path d="M0,342.08c20.95-2.24,33.98-6.07,39.09-11.5,5.1-5.43,7.66-19.6,7.66-42.53V57.66c0-18.87-2.86-31.21-8.57-37.01C32.47,14.85,19.74,11.26,0,9.87V0h283.38l1.82,76.1h-14.81c-3.64-24.3-10.48-39.68-20.52-46.15-10.04-6.46-29.87-9.7-59.48-9.7h-72.94c-7.13,0-11.68,1.21-13.68,3.64-1.99,2.43-2.99,7.19-2.99,14.29v118.7h77.14c22.68,0,37.14-3.35,43.38-10.08s11.26-20.33,15.06-40.83h12.47v122.86h-12.47c-3.99-20.61-9.09-34.24-15.32-40.91-6.23-6.66-20.61-10-43.12-10h-77.14v116.36c0,19.47,2.99,31.91,8.96,37.33,5.97,5.43,19,8.91,39.09,10.46v9.87H0v-9.87Z"/><path d="M319.42,144.03c21.9-23.81,50.09-35.71,84.55-35.71s62.68,11.26,85.19,33.77c22.5,22.51,33.77,52.47,33.77,89.87,0,34.46-10.91,64.42-32.73,89.87-21.82,25.45-50.04,38.18-84.68,38.18s-61.39-12.21-84.42-36.62c-23.03-24.42-34.55-55.06-34.55-91.95,0-34.46,10.95-63.59,32.86-87.4ZM360.9,137.4c-17.34,15.76-26.02,42.95-26.02,81.56,0,30.82,6.98,59.57,20.94,86.23,13.97,26.67,33.35,40,58.17,40,19.43,0,34.39-8.92,44.89-26.75,10.49-17.83,15.74-41.21,15.74-70.13s-6.68-58.18-20.04-84.68c-13.36-26.49-32.7-39.74-58.02-39.74-13.71,0-25.6,4.51-35.66,13.51Z"/><path d="M531.94,343.38c15.93-1.39,26.49-4.2,31.69-8.44,5.19-4.24,7.79-13.29,7.79-27.14v-117.14c0-17.14-1.6-29.39-4.81-36.75-3.2-7.36-9.05-11.04-17.53-11.04-1.73,0-4.03.22-6.88.65-2.86.43-5.84,1-8.96,1.69v-8.57c9.84-3.46,19.94-7.01,30.29-10.65,10.36-3.64,17.53-6.23,21.49-7.79,8.63-3.29,17.52-7.01,26.67-11.17,1.21,0,1.94.43,2.2,1.3.26.87.39,2.69.39,5.45v42.6c11.11-15.41,21.83-27.44,32.16-36.1,10.33-8.66,21.05-12.99,32.17-12.99,8.85,0,16.05,2.64,21.61,7.92,5.56,5.28,8.34,11.91,8.34,19.87,0,7.1-2.12,13.08-6.36,17.92-4.24,4.85-9.57,7.27-15.97,7.27s-13.2-3.03-19.87-9.09c-6.67-6.06-11.9-9.09-15.71-9.09-6.06,0-13.51,4.9-22.34,14.68-8.83,9.78-13.25,19.87-13.25,30.26v117.14c0,14.9,3.46,25.24,10.39,31.04,6.93,5.8,18.44,8.53,34.55,8.18v8.57h-128.05v-8.57Z"/><path d="M865.09,133.64c16.45,16.88,24.68,40.82,24.68,71.82h-147.83c1.55,40.09,9.7,69.29,24.45,87.6,14.74,18.31,32.21,27.47,52.38,27.47,16.3,0,30.03-4.75,41.21-14.25,9.58-8.14,18.53-19.21,26.85-33.19,2.01-3.38,6.02-4.73,9.89-4.05.04,0,.07.01.11.02,1.13.18,1.8,1.4,1.44,2.49-5.33,16.18-15.97,38.23-34.92,58.56-17.46,18.73-38.84,28.1-64.14,28.1-29.18,0-51.72-12.29-67.63-36.88-15.91-24.59-23.86-52.9-23.86-84.94,0-34.81,9.24-64.84,27.7-90.13,18.47-25.28,42.53-37.92,72.17-37.92,21.88,0,41.05,8.44,57.5,25.32ZM753.57,153.51c-4.97,9.35-8.54,21.13-10.71,35.32h98.25c-1.71-17.31-4.66-30.22-8.85-38.7-7.61-15.23-20.33-22.86-38.18-22.86s-31.2,8.74-40.51,26.23Z"/><path d="M1097.41,123.71c15.67,11.13,23.51,23.34,23.51,36.63,0,5.7-1.99,11-5.97,15.92-3.99,4.92-10.13,7.38-18.44,7.38-6.07,0-11.39-2.08-15.97-6.23-4.59-4.16-7.92-10.22-10-18.18l-3.12-12.47c-2.25-9.18-6.15-15.67-11.69-19.48-5.71-3.64-13.25-5.45-22.6-5.45-19.74,0-36.41,8.63-50,25.88-13.6,17.25-20.39,40.18-20.39,68.79,0,26.18,7.49,49.68,22.47,70.48,14.97,20.81,35.19,31.21,60.65,31.21,18.01,0,34.03-5.9,48.05-17.7,7.96-6.76,16.97-17.52,27.01-32.27l7.27,4.42c-9.87,20.8-20.26,37.27-31.17,49.4-20.95,23.23-45.19,34.84-72.73,34.84s-50.91-10.65-71.69-31.95c-20.78-21.3-31.17-50.22-31.17-86.75s11.33-66.66,34.03-92.47c22.68-25.8,51.33-38.7,85.97-38.7,21.65,0,40.3,5.57,55.97,16.7ZM1130.36,263.81c1.74,1.47-1.76,8.06-2.17,8.82-2.42-1.47-4.85-2.95-7.27-4.42.31-.47.77-1.1,1.44-1.73.47-.45,1.9-1.72,4.2-2.39,1.6-.46,3.08-.89,3.8-.28Z"/><path d="M1193.05,237.4c15.93-10.39,47.7-24.5,95.32-42.34v-22.08c0-17.66-1.73-29.96-5.19-36.88-5.89-11.6-18.1-17.4-36.62-17.4-8.83,0-17.24,2.25-25.19,6.75-7.97,4.68-11.95,11.08-11.95,19.22,0,2.08.43,5.58,1.3,10.52.87,4.94,1.3,8.1,1.3,9.48,0,9.7-3.21,16.45-9.61,20.26-3.64,2.25-7.97,3.38-12.99,3.38-7.79,0-13.77-2.55-17.92-7.66-4.16-5.1-6.23-10.78-6.23-17.01,0-12.12,7.49-24.81,22.47-38.05,14.97-13.25,36.92-19.87,65.84-19.87,33.59,0,56.36,10.91,68.31,32.73,6.4,11.95,9.61,29.35,9.61,52.21v104.16c0,10.04.69,16.97,2.08,20.78,2.24,6.75,6.92,10.13,14.03,10.13,3.98,0,7.27-.61,9.87-1.82,2.6-1.21,7.1-4.16,13.51-8.83v13.51c-5.55,6.75-11.52,12.3-17.92,16.62-9.7,6.58-19.57,9.87-29.61,9.87-11.78,0-20.3-3.81-25.58-11.43-5.29-7.62-8.18-16.71-8.7-27.27-13.16,11.43-24.42,19.91-33.77,25.45-15.76,9.35-30.74,14.03-44.94,14.03-14.9,0-27.79-5.23-38.7-15.71-10.91-10.48-16.36-23.77-16.36-39.87,0-25.1,12.55-46.06,37.66-62.86ZM1288.37,208.05c-19.91,6.58-36.36,13.86-49.35,21.82-24.94,15.41-37.4,32.9-37.4,52.47,0,15.76,5.19,27.36,15.58,34.81,6.75,4.85,14.29,7.27,22.6,7.27,11.43,0,22.37-3.2,32.86-9.61,10.48-6.4,15.71-14.55,15.71-24.42v-82.34Z"/><path d="M1397.76,270.13h8.57c3.97,19.74,9.33,34.9,16.07,45.45,12.09,19.39,29.8,29.09,53.12,29.09,12.95,0,23.19-3.59,30.71-10.78,7.51-7.18,11.27-16.49,11.27-27.92,0-7.27-2.16-14.29-6.49-21.04-4.33-6.75-11.95-13.33-22.86-19.74l-29.08-16.62c-21.3-11.43-36.97-22.94-47.02-34.55-10.05-11.6-15.07-25.28-15.07-41.04,0-19.39,6.93-35.32,20.78-47.79,13.85-12.47,31.26-18.7,52.21-18.7,9.18,0,19.26,1.73,30.26,5.19,11,3.47,17.19,5.19,18.57,5.19,3.12,0,5.37-.43,6.75-1.3,1.39-.87,2.6-2.25,3.64-4.16h6.23l1.82,72.47h-8.05c-3.46-16.79-8.14-29.87-14.03-39.22-10.74-17.31-26.23-25.97-46.49-25.97-12.12,0-21.65,3.73-28.57,11.17-6.93,7.45-10.39,16.19-10.39,26.23,0,15.93,11.95,30.13,35.84,42.6l34.29,18.44c36.88,20.09,55.32,43.47,55.32,70.13,0,20.43-7.65,37.14-22.95,50.13s-35.3,19.48-60.02,19.48c-10.38,0-22.13-1.73-35.27-5.19-13.13-3.46-20.92-5.19-23.33-5.19-2.08,0-3.9.74-5.45,2.21-1.56,1.47-2.77,3.25-3.63,5.32h-6.75v-83.9Z"/><path d="M1695.49,112.47v18.7h-52.99l-.52,149.61c0,13.16,1.13,23.12,3.38,29.87,4.16,11.95,12.29,17.92,24.42,17.92,6.23,0,11.65-1.47,16.23-4.42,4.59-2.94,9.83-7.62,15.71-14.03l6.75,5.71-5.71,7.79c-9,12.12-18.53,20.69-28.57,25.71-10.04,5.02-19.74,7.53-29.09,7.53-20.43,0-34.29-9.09-41.56-27.27-3.98-9.87-5.97-23.55-5.97-41.04v-157.4h-28.31c-.87-.52-1.52-1.04-1.95-1.56s-.65-1.21-.65-2.08c0-1.73.39-3.07,1.17-4.03.78-.95,3.25-3.16,7.4-6.62,11.95-9.87,20.56-17.88,25.84-24.03,5.28-6.14,17.71-22.38,37.27-48.7,2.25,0,3.59.17,4.03.52.43.35.65,1.65.65,3.9v63.9h52.47Z"/></g></svg>
